<svg xmlns="http://www.w3.org/2000/svg">

  <symbol id='clear'>
    <path d="M5.82805 5.14314C5.63862 4.95229 5.3315 4.95229 5.14207 5.14314C4.95264 5.334 4.95264 5.64344 5.14207 5.8343L9.31402 10.0378L5.21704 14.1657C5.02761 14.3566 5.02761 14.666 5.21704 14.8569C5.40647 15.0477 5.71359 15.0477 5.90302 14.8569L10 10.7289L14.097 14.8569C14.2864 15.0477 14.5935 15.0477 14.783 14.8569C14.9724 14.666 14.9724 14.3566 14.783 14.1657L10.686 10.0378L14.8579 5.8343C15.0474 5.64344 15.0474 5.334 14.8579 5.14314C14.6685 4.95229 14.3614 4.95229 14.172 5.14314L10 9.34661L5.82805 5.14314Z"/>
  </symbol>

</svg>