<?xml version="1.0" encoding="UTF-8" standalone="no" ?>
<!DOCTYPE svg PUBLIC "-//W3C//DTD SVG 1.1//EN" "http://www.w3.org/Graphics/SVG/1.1/DTD/svg11.dtd">
<svg xmlns="http://www.w3.org/2000/svg" xmlns:xlink="http://www.w3.org/1999/xlink" version="1.1" width="400" height="400" viewBox="0 0 400 400" xml:space="preserve">
<desc>Created with Fabric.js 3.6.2</desc>
<defs>
</defs>
<g transform="matrix(6.25 0 0 6.25 200 216.61)" id="Briefcase"  >
<path style="stroke: none; stroke-width: 1; stroke-dasharray: none; stroke-linecap: butt; stroke-dashoffset: 0; stroke-linejoin: miter; stroke-miterlimit: 4; fill: rgb(205,246,249); fill-rule: nonzero; opacity: 1;"  transform=" translate(-16, -18.66)" d="M 5.28 28.638 c -1.811 0 -3.28 -1.469 -3.28 -3.28 v -13.41 c 0 -1.806 1.464 -3.27 3.27 -3.27 h 21.45 c 1.811 0 3.28 1.469 3.28 3.28 v 13.41 c 0 1.806 -1.464 3.27 -3.27 3.27 H 5.28 z" stroke-linecap="round" />
</g>
<g transform="matrix(6.25 0 0 6.25 200.01 206.02)" id="Briefcase"  >
<path style="stroke: none; stroke-width: 1; stroke-dasharray: none; stroke-linecap: butt; stroke-dashoffset: 0; stroke-linejoin: miter; stroke-miterlimit: 4; fill: rgb(255,255,255); fill-rule: nonzero; opacity: 1;"  transform=" translate(-16, -16.96)" d="M 18.356 18.994 h -4.711 c -0.783 0 -1.466 -0.532 -1.656 -1.292 l -0.696 -2.771 h 9.417 l -0.696 2.771 C 19.821 18.461 19.139 18.994 18.356 18.994 z" stroke-linecap="round" />
</g>
<g transform="matrix(6.25 0 0 6.25 200 200)" id="Briefcase"  >
<path style="stroke: none; stroke-width: 1; stroke-dasharray: none; stroke-linecap: butt; stroke-dashoffset: 0; stroke-linejoin: miter; stroke-miterlimit: 4; fill: rgb(26,131,168); fill-rule: nonzero; opacity: 1;"  transform=" translate(-16, -16)" d="M 26.72 7.778 h -3.395 l -0.851 -3.199 c -0.331 -1.246 -1.463 -2.117 -2.753 -2.117 h -7.441 c -1.29 0 -2.422 0.871 -2.753 2.116 L 8.675 7.778 H 5.27 c -2.299 0 -4.17 1.871 -4.17 4.17 v 13.41 c 0 2.305 1.876 4.18 4.181 4.18 h 21.45 c 2.299 0 4.17 -1.871 4.17 -4.17 v -13.41 C 30.9 9.653 29.024 7.778 26.72 7.778 z M 11.267 5.041 c 0.121 -0.458 0.538 -0.779 1.013 -0.779 h 7.441 c 0.475 0 0.892 0.32 1.013 0.779 l 0.728 2.736 H 10.538 L 11.267 5.041 z M 29.1 25.368 c 0 1.307 -1.063 2.37 -2.369 2.37 H 5.28 c -1.313 0 -2.38 -1.068 -2.38 -2.38 v -9.527 h 7.69 l 0.525 2.09 c 0.291 1.162 1.331 1.973 2.529 1.973 h 4.711 c 1.198 0 2.238 -0.811 2.529 -1.972 l 0.525 -2.09 h 7.69 V 25.368 z M 12.446 15.831 h 7.108 l -0.415 1.652 c -0.09 0.359 -0.412 0.61 -0.783 0.61 h -4.711 c -0.371 0 -0.693 -0.251 -0.783 -0.611 L 12.446 15.831 z M 29.1 14.031 H 2.9 v -2.083 c 0 -1.307 1.063 -2.37 2.369 -2.37 h 17.359 c 0.001 0 0.002 0 0.003 0 c 0.001 0 0.002 0 0.004 0 h 4.084 c 1.313 0 2.38 1.068 2.38 2.38 V 14.031 z" stroke-linecap="round" />
</g>
</svg>